:SAMPLES-PER-SECOND 30
:FULLY-SPECIFIED
:DEGREES
170
root  -52.4171 41.4673 -32.6911 179.384 -26.5432 -179.225
RightUpLeg  -1.55872 -6.46699 -3.49663
RightLeg  3.94297 1.69389 3.21261
RightFoot  -0.640258 0.212822 -2.41652
RightToes  5.82063e-011 0 -3.6325e-017
Spine  0.516412 0.114087 4.67566
Spine1  3.86908 0.621395 -2.77878
HEad  -10.0509 7.75862 -1.44762
LeftShoulder1  0.187239 2.30389 -7.58775
LeftArm  -16.5828 12.0585 -0.999364
LeftForeArm  13.3609 -9.45543 -2.64408
LeftHand  -0.244104 0.0205437 5.32207
RightShoulder  0.349667 -0.823832 5.24158
RightArm  -16.6105 -4.55946 -0.569422
RightForeArm  -10.4419 6.3331 5.29225
RightHand  -1.4209 4.06673 -17.5808
LeftUpLeg  0.254521 4.18376 1.7633
LeftLeg  1.30973 12.3545 -3.58991
LeftFoot  -1.51985 -0.203995 2.48109
LeftToes  1.2005e-010 6.1915e-012 3.32694e-011
171
root  -52.386 41.4669 -32.7576 179.477 -26.7413 -179.141
RightUpLeg  -1.52655 -6.51179 -3.41212
RightLeg  3.8647 1.50607 3.35451
RightFoot  -0.79193 0.215524 -2.44211
RightToes  5.82063e-011 0 -3.6325e-017
Spine  0.888071 0.0717087 4.39152
Spine1  3.56516 0.529765 -2.50977
HEad  -10.1918 7.73325 -1.55571
LeftShoulder1  0.262115 1.86484 -8.16268
LeftArm  -16.1029 12.1005 -1.50546
LeftForeArm  13.2759 -8.00517 -2.61159
LeftHand  -0.244104 0.0205437 5.32207
RightShoulder  0.419199 -0.436042 5.94146
RightArm  -15.7601 -4.3577 -0.313066
RightForeArm  -8.91165 5.82009 5.37475
RightHand  -1.2752 3.63552 -16.5506
LeftUpLeg  0.0938757 4.26312 1.93003
LeftLeg  1.47724 12.0794 -3.54617
LeftFoot  -1.65017 -0.192948 2.39306
LeftToes  1.2005e-010 6.1915e-012 3.32694e-011
172
root  -52.3667 41.4664 -32.8346 179.649 -27.0126 -179.094
RightUpLeg  -1.53634 -6.36017 -3.24424
RightLeg  3.70985 1.12125 3.26509
RightFoot  -0.932748 0.212808 -2.39784
RightToes  5.82063e-011 0 -3.6325e-017
Spine  0.901165 0.0420553 4.07457
Spine1  3.57174 0.441195 -2.20963
HEad  -10.2988 7.78074 -1.68886
LeftShoulder1  0.309111 1.60533 -8.52993
LeftArm  -15.3485 11.842 -2.04995
LeftForeArm  12.6132 -6.27001 -2.70806
LeftHand  -0.244104 0.0205437 5.32207
RightShoulder  0.482722 -0.121595 6.6309
RightArm  -15.2265 -4.31375 -0.216721
RightForeArm  -7.22609 5.36203 5.35977
RightHand  -1.1376 3.26078 -15.4303
LeftUpLeg  -0.0747637 4.31653 2.04997
LeftLeg  1.54272 11.7627 -3.54546
LeftFoot  -1.7132 -0.190837 2.39465
LeftToes  1.2005e-010 6.1915e-012 3.32694e-011
173
root  -52.3569 41.4663 -32.9144 179.869 -27.2551 -179.112
RightUpLeg  -1.61552 -6.22974 -3.13112
RightLeg  3.65253 0.799105 3.1594
RightFoot  -1.02227 0.217957 -2.47708
RightToes  5.82063e-011 0 -3.6325e-017
Spine  0.807367 0.0576621 3.74217
Spine1  3.64993 0.397531 -1.90351
HEad  -10.4384 7.84144 -1.82104
LeftShoulder1  0.342634 1.43526 -8.86323
LeftArm  -14.5194 11.6239 -2.40923
LeftForeArm  11.8995 -4.94161 -2.90462
LeftHand  -0.244104 0.0205437 5.32207
RightShoulder  0.517021 0.00532069 7.14884
RightArm  -15.2113 -4.38512 -0.209774
RightForeArm  -6.45506 5.10901 5.27524
RightHand  -1.06311 2.98446 -14.9023
LeftUpLeg  -0.200313 4.327 2.09575
LeftLeg  1.50169 11.5053 -3.57301
LeftFoot  -1.71919 -0.188162 2.38987
LeftToes  1.2005e-010 6.1915e-012 3.32694e-011
174
root  -52.3404 41.4663 -32.9838 -179.979 -27.5596 -179.141
RightUpLeg  -1.61379 -6.30305 -3.14351
RightLeg  3.64452 0.559096 3.2423
RightFoot  -1.152 0.225071 -2.61087
RightToes  5.82063e-011 0 -3.6325e-017
Spine  1.00621 0.0594656 3.41098
Spine1  3.43156 0.350012 -1.63132
HEad  -10.4792 7.79957 -1.85895
LeftShoulder1  0.386013 1.2109 -9.19507
LeftArm  -14.2377 11.8819 -2.51468
LeftForeArm  11.7655 -4.67416 -2.94947
LeftHand  -0.244104 0.0205437 5.32207
RightShoulder  0.527049 -0.0098649 7.54064
RightArm  -15.396 -4.55994 -0.328556
RightForeArm  -6.67597 4.90943 5.18585
RightHand  -1.05921 2.84933 -15.0782
LeftUpLeg  -0.301047 4.32306 2.12916
LeftLeg  1.51908 11.1986 -3.56735
LeftFoot  -1.76205 -0.179215 2.28901
LeftToes  1.2005e-010 6.1915e-012 3.32694e-011
175
root  -52.331 41.4663 -33.0442 -179.878 -27.9253 -179.163
RightUpLeg  -1.53189 -6.46777 -3.2158
RightLeg  3.60218 0.332116 3.40073
RightFoot  -1.33674 0.222638 -2.64507
RightToes  5.82063e-011 0 -3.6325e-017
Spine  1.33262 0.000820369 3.25949
Spine1  3.07512 0.299153 -1.6401
HEad  -10.3484 7.70283 -1.72841
LeftShoulder1  0.416471 1.04568 -9.33485
LeftArm  -14.4974 12.3638 -2.50442
LeftForeArm  11.9656 -5.00855 -2.81805
LeftHand  -0.244104 0.0205437 5.32207
RightShoulder  0.537483 -0.0247637 7.94729
RightArm  -15.3194 -4.75469 -0.623985
RightForeArm  -6.88392 4.53116 5.13851
RightHand  -1.09113 2.95522 -15.3343
LeftUpLeg  -0.392258 4.28172 2.13795
LeftLeg  1.59026 10.8785 -3.51165
LeftFoot  -1.84649 -0.166349 2.13471
LeftToes  1.2005e-010 6.1915e-012 3.32694e-011
176
root  -52.3538 41.4663 -33.1052 -179.747 -28.1526 -179.205
RightUpLeg  -1.51228 -6.54252 -3.27658
RightLeg  3.60272 0.186226 3.44321
RightFoot  -1.5015 0.213752 -2.59963
RightToes  5.82063e-011 0 -3.6325e-017
Spine  1.37035 -0.0634885 3.37686
Spine1  3.0008 0.308875 -1.99315
HEad  -10.152 7.67486 -1.55428
LeftShoulder1  0.398715 1.14653 -9.28971
LeftArm  -14.7297 12.556 -2.45952
LeftForeArm  11.9938 -5.17653 -2.72309
LeftHand  -0.244104 0.0205437 5.32207
RightShoulder  0.554645 0.0219047 8.26435
RightArm  -15.0442 -4.85175 -0.948233
RightForeArm  -6.55786 4.03573 5.1156
RightHand  -1.08515 3.03513 -15.1111
LeftUpLeg  -0.421201 4.19485 2.07659
LeftLeg  1.56201 10.7428 -3.46354
LeftFoot  -1.9037 -0.157623 2.05331
LeftToes  1.2005e-010 6.1915e-012 3.32694e-011
177
root  -52.3926 41.4663 -33.1685 -179.604 -28.1629 -179.242
RightUpLeg  -1.57727 -6.51301 -3.29104
RightLeg  3.69435 0.153882 3.39424
RightFoot  -1.63095 0.208295 -2.58067
RightToes  5.82063e-011 0 -3.6325e-017
Spine  1.17281 -0.0531299 3.54917
Spine1  3.16691 0.386404 -2.32917
HEad  -9.98419 7.6846 -1.55488
LeftShoulder1  0.358453 1.39174 -9.31946
LeftArm  -14.6525 12.5374 -2.28927
LeftForeArm  11.9478 -5.23635 -2.75862
LeftHand  -0.244104 0.0205437 5.32207
RightShoulder  0.558709 0.0513479 8.24631
RightArm  -14.9798 -4.86788 -1.06584
RightForeArm  -6.14156 3.68388 5.0639
RightHand  -1.00454 2.71998 -14.5359
LeftUpLeg  -0.387893 4.1509 2.02391
LeftLeg  1.45708 10.7695 -3.46756
LeftFoot  -1.94389 -0.153823 2.03825
LeftToes  1.2005e-010 6.1915e-012 3.32694e-011
178
root  -52.411 41.4663 -33.2305 -179.502 -28.175 -179.201
RightUpLeg  -1.62311 -6.42019 -3.20698
RightLeg  3.73596 0.038013 3.34892
RightFoot  -1.74564 0.204691 -2.57802
RightToes  5.82063e-011 0 -3.6325e-017
Spine  1.04248 0.00196192 3.57577
Spine1  3.23827 0.447818 -2.38233
HEad  -9.81654 7.61395 -1.7266
LeftShoulder1  0.352325 1.44393 -9.45371
LeftArm  -14.4514 12.7249 -1.99935
LeftForeArm  12.0784 -5.54625 -2.8355
LeftHand  -0.244104 0.0205437 5.32207
RightShoulder  0.541077 -0.00776524 7.9786
RightArm  -15.2252 -4.93653 -0.98101
RightForeArm  -5.92671 3.57273 4.96128
RightHand  -0.917161 2.23989 -14.1043
LeftUpLeg  -0.409827 4.20719 2.09611
LeftLeg  1.4509 10.6894 -3.48529
LeftFoot  -2.02622 -0.146378 1.96334
LeftToes  1.2005e-010 6.1915e-012 3.32694e-011
179
root  -52.4126 41.4663 -33.2918 -179.423 -28.3955 -179.108
RightUpLeg  -1.59224 -6.27034 -3.0396
RightLeg  3.63355 -0.319793 3.2723
RightFoot  -1.83156 0.195906 -2.50181
RightToes  5.82063e-011 0 -3.6325e-017
Spine  0.957308 -0.0029047 3.52074
Spine1  3.23194 0.42722 -2.33244
HEad  -9.6209 7.50533 -1.84161
LeftShoulder1  0.375731 1.29968 -9.41639
LeftArm  -14.3226 13.0261 -1.81667
LeftForeArm  12.2 -5.77922 -2.86156
LeftHand  -0.244104 0.0205437 5.32207
RightShoulder  0.521777 -0.103194 7.82997
RightArm  -15.5139 -5.08705 -0.913598
RightForeArm  -5.69212 3.62857 4.8542
RightHand  -0.900091 2.13778 -14.0253
LeftUpLeg  -0.513446 4.26325 2.22424
LeftLeg  1.53281 10.412 -3.46024
LeftFoot  -2.11042 -0.136659 1.84331
LeftToes  1.2005e-010 6.1915e-012 3.32694e-011
180
root  -52.4288 41.4663 -33.3525 -179.36 -28.7159 -179.093
RightUpLeg  -1.49284 -6.16883 -2.95836
RightLeg  3.53645 -0.694762 3.16215
RightFoot  -1.90356 0.183739 -2.3759
RightToes  5.82063e-011 0 -3.6325e-017
Spine  0.798912 -0.0862333 3.4688
Spine1  3.3588 0.352961 -2.37806
HEad  -9.42542 7.51242 -1.79037
LeftShoulder1  0.369883 1.30174 -9.13671
LeftArm  -14.2326 13.0045 -1.87246
LeftForeArm  12.1198 -5.48129 -2.86156
LeftHand  -0.244104 0.0205437 5.32207
RightShoulder  0.516936 -0.149745 7.90581
RightArm  -15.6369 -5.18157 -0.967754
RightForeArm  -5.40651 3.78785 4.81173
RightHand  -0.928974 2.35654 -14.0739
LeftUpLeg  -0.523072 4.20417 2.22798
LeftLeg  1.51381 10.1633 -3.40986
LeftFoot  -2.10951 -0.135972 1.83263
LeftToes  1.2005e-010 6.1915e-012 3.32694e-011
181
root  -52.4616 41.4663 -33.4069 -179.355 -28.9084 -179.184
RightUpLeg  -1.34087 -6.28347 -3.08792
RightLeg  3.58899 -0.746817 3.18585
RightFoot  -2.00681 0.17953 -2.35835
RightToes  5.82063e-011 0 -3.6325e-017
Spine  0.735141 -0.155657 3.36066
Spine1  3.49427 0.2951 -2.40266
HEad  -9.23049 7.6394 -1.71125
LeftShoulder1  0.324242 1.5513 -8.89322
LeftArm  -14.0843 12.7097 -1.9908
LeftForeArm  12.0873 -5.04034 -2.90515
LeftHand  -0.244104 0.0205437 5.32207
RightShoulder  0.518568 -0.151197 7.96782
RightArm  -15.5672 -5.12267 -1.05813
RightForeArm  -5.28504 3.96126 4.85454
RightHand  -0.936303 2.44883 -14.0222
LeftUpLeg  -0.347541 4.09901 2.11516
LeftLeg  1.39134 10.0886 -3.39163
LeftFoot  -2.06549 -0.142196 1.92942
LeftToes  1.2005e-010 6.1915e-012 3.32694e-011
182
root  -52.4864 41.4663 -33.4541 -179.403 -28.9645 -179.236
RightUpLeg  -1.18015 -6.54936 -3.27829
RightLeg  3.67302 -0.558426 3.4095
RightFoot  -2.10929 0.189179 -2.50855
RightToes  5.82063e-011 0 -3.6325e-017
Spine  0.873251 -0.145801 3.21297
Spine1  3.42384 0.28706 -2.29137
HEad  -9.03946 7.75066 -1.73333
LeftShoulder1  0.293181 1.74023 -8.8747
LeftArm  -13.9124 12.6167 -1.96564
LeftForeArm  12.3418 -5.13812 -2.98869
LeftHand  -0.244104 0.0205437 5.32207
RightShoulder  0.514543 -0.161523 7.88635
RightArm  -15.3607 -4.99145 -1.10214
RightForeArm  -5.27882 3.99185 4.93114
RightHand  -0.930823 2.44413 -13.9503
LeftUpLeg  -0.18197 4.09967 2.08446
LeftLeg  1.38145 10.0354 -3.41014
LeftFoot  -2.10418 -0.144099 1.95901
LeftToes  1.2005e-010 6.1915e-012 3.32694e-011
